<?xml version="1.0" encoding="UTF-8" standalone="no"?>
<svg
   xmlns:dc="http://purl.org/dc/elements/1.1/"
   xmlns:cc="http://creativecommons.org/ns#"
   xmlns:rdf="http://www.w3.org/1999/02/22-rdf-syntax-ns#"
   xmlns:svg="http://www.w3.org/2000/svg"
   xmlns="http://www.w3.org/2000/svg"
   xmlns:sodipodi="http://sodipodi.sourceforge.net/DTD/sodipodi-0.dtd"
   xmlns:inkscape="http://www.inkscape.org/namespaces/inkscape"
   viewBox="0 0 32 32"
   version="1.1"
   id="svg12"
   sodipodi:docname="sql.svg"
   inkscape:version="1.0.1 (3bc2e813f5, 2020-09-07)">
  <metadata
     id="metadata18">
    <rdf:RDF>
      <cc:Work
         rdf:about="">
        <dc:format>image/svg+xml</dc:format>
        <dc:type
           rdf:resource="http://purl.org/dc/dcmitype/StillImage" />
      </cc:Work>
    </rdf:RDF>
  </metadata>
  <defs
     id="defs16" />
  <sodipodi:namedview
     pagecolor="#ffffff"
     bordercolor="#666666"
     borderopacity="1"
     objecttolerance="10"
     gridtolerance="10"
     guidetolerance="10"
     inkscape:pageopacity="0"
     inkscape:pageshadow="2"
     inkscape:window-width="2560"
     inkscape:window-height="1361"
     id="namedview14"
     showgrid="false"
     inkscape:zoom="31.5"
     inkscape:cx="16"
     inkscape:cy="15.936508"
     inkscape:window-x="-9"
     inkscape:window-y="199"
     inkscape:window-maximized="1"
     inkscape:current-layer="svg12" />
  <title
     id="title2">file_type_sql</title>
  <path
     d="M8.562,15.256A21.159,21.159,0,0,0,16,16.449a21.159,21.159,0,0,0,7.438-1.194c1.864-.727,2.525-1.535,2.525-2V9.7a10.357,10.357,0,0,1-2.084,1.076A22.293,22.293,0,0,1,16,12.078a22.36,22.36,0,0,1-7.879-1.3A10.28,10.28,0,0,1,6.037,9.7v3.55C6.037,13.724,6.7,14.528,8.562,15.256Z"
     style="fill:#0082ff;fill-opacity:1"
     id="path4" />
  <path
     d="M8.562,21.961a15.611,15.611,0,0,0,2.6.741A24.9,24.9,0,0,0,16,23.155a24.9,24.9,0,0,0,4.838-.452,15.614,15.614,0,0,0,2.6-.741c1.864-.727,2.525-1.535,2.525-2v-3.39a10.706,10.706,0,0,1-1.692.825A23.49,23.49,0,0,1,16,18.74a23.49,23.49,0,0,1-8.271-1.348,10.829,10.829,0,0,1-1.692-.825V19.96C6.037,20.426,6.7,21.231,8.562,21.961Z"
     style="fill:#0082ff;fill-opacity:1"
     id="path6" />
  <path
     d="M16,30c5.5,0,9.963-1.744,9.963-3.894V23.269a10.5,10.5,0,0,1-1.535.762l-.157.063A23.487,23.487,0,0,1,16,25.445a23.422,23.422,0,0,1-8.271-1.351c-.054-.02-.106-.043-.157-.063a10.5,10.5,0,0,1-1.535-.762v2.837C6.037,28.256,10.5,30,16,30Z"
     style="fill:#0082ff;fill-opacity:1"
     id="path8" />
  <ellipse
     cx="16"
     cy="5.894"
     rx="9.963"
     ry="3.894"
     style="fill:#0082ff;fill-opacity:1"
     id="ellipse10" />
</svg>
